<svg width="1839" height="386" viewBox="0 0 1839 386" fill="none" xmlns="http://www.w3.org/2000/svg">
<path d="M202.498 303.82V77.3459H260.825V98.3864H227.888V282.779H260.825V303.82H202.498ZM400.607 77.3459V303.82H342.279V282.779H375.216V98.3864H342.279V77.3459H400.607Z" fill="white"/>
<path d="M628.697 207.831C628.697 195.523 631.533 184.482 637.204 174.708C642.996 164.934 650.779 157.332 660.553 151.902C670.448 146.351 681.247 143.576 692.952 143.576C706.346 143.576 718.232 146.894 728.609 153.531C739.107 160.047 746.709 169.338 751.415 181.405H726.618C723.36 174.768 718.835 169.821 713.043 166.563C707.251 163.305 700.554 161.676 692.952 161.676C684.626 161.676 677.205 163.546 670.689 167.287C664.173 171.028 659.045 176.397 655.304 183.396C651.684 190.395 649.874 198.54 649.874 207.831C649.874 217.122 651.684 225.267 655.304 232.266C659.045 239.265 664.173 244.695 670.689 248.556C677.205 252.297 684.626 254.167 692.952 254.167C700.554 254.167 707.251 252.538 713.043 249.28C718.835 246.022 723.36 241.075 726.618 234.438H751.415C746.709 246.505 739.107 255.796 728.609 262.312C718.232 268.828 706.346 272.086 692.952 272.086C681.127 272.086 670.327 269.371 660.553 263.941C650.779 258.39 642.996 250.728 637.204 240.954C631.533 231.18 628.697 220.139 628.697 207.831ZM840.908 271L811.948 220.682H796.201V271H775.567V145.205H819.007C828.661 145.205 836.806 146.894 843.442 150.273C850.2 153.652 855.207 158.177 858.465 163.848C861.844 169.519 863.533 175.854 863.533 182.853C863.533 191.058 861.12 198.54 856.293 205.297C851.587 211.934 844.287 216.459 834.392 218.872L865.524 271H840.908ZM796.201 204.211H819.007C826.73 204.211 832.522 202.28 836.383 198.419C840.365 194.558 842.356 189.369 842.356 182.853C842.356 176.337 840.426 171.269 836.564 167.649C832.703 163.908 826.851 162.038 819.007 162.038H796.201V204.211ZM910.563 161.857V198.781H954.003V215.614H910.563V254.167H959.433V271H889.929V145.024H959.433V161.857H910.563ZM1060.69 245.298H1008.02L998.966 271H977.427L1022.5 145.024H1046.39L1091.46 271H1069.74L1060.69 245.298ZM1054.9 228.465L1034.44 170.002L1013.81 228.465H1054.9ZM1214.4 271H1193.77L1131.69 177.061V271H1111.05V145.024H1131.69L1193.77 238.782V145.024H1214.4V271ZM1298.88 272.267C1287.17 272.267 1276.37 269.552 1266.48 264.122C1256.7 258.571 1248.92 250.909 1243.13 241.135C1237.46 231.24 1234.62 220.139 1234.62 207.831C1234.62 195.523 1237.46 184.482 1243.13 174.708C1248.92 164.934 1256.7 157.332 1266.48 151.902C1276.37 146.351 1287.17 143.576 1298.88 143.576C1310.7 143.576 1321.5 146.351 1331.28 151.902C1341.17 157.332 1348.95 164.934 1354.63 174.708C1360.3 184.482 1363.13 195.523 1363.13 207.831C1363.13 220.139 1360.3 231.24 1354.63 241.135C1348.95 250.909 1341.17 258.571 1331.28 264.122C1321.5 269.552 1310.7 272.267 1298.88 272.267ZM1298.88 254.348C1307.2 254.348 1314.62 252.478 1321.14 248.737C1327.66 244.876 1332.72 239.446 1336.34 232.447C1340.09 225.328 1341.96 217.122 1341.96 207.831C1341.96 198.54 1340.09 190.395 1336.34 183.396C1332.72 176.397 1327.66 171.028 1321.14 167.287C1314.62 163.546 1307.2 161.676 1298.88 161.676C1290.55 161.676 1283.13 163.546 1276.61 167.287C1270.1 171.028 1264.97 176.397 1261.23 183.396C1257.61 190.395 1255.8 198.54 1255.8 207.831C1255.8 217.122 1257.61 225.328 1261.23 232.447C1264.97 239.446 1270.1 244.876 1276.61 248.737C1283.13 252.478 1290.55 254.348 1298.88 254.348ZM1491.86 145.205L1444.62 271H1420.72L1373.3 145.205H1395.38L1432.67 249.823L1470.14 145.205H1491.86ZM1566.49 272.267C1554.78 272.267 1543.98 269.552 1534.09 264.122C1524.32 258.571 1516.53 250.909 1510.74 241.135C1505.07 231.24 1502.23 220.139 1502.23 207.831C1502.23 195.523 1505.07 184.482 1510.74 174.708C1516.53 164.934 1524.32 157.332 1534.09 151.902C1543.98 146.351 1554.78 143.576 1566.49 143.576C1578.31 143.576 1589.11 146.351 1598.89 151.902C1608.78 157.332 1616.57 164.934 1622.24 174.708C1627.91 184.482 1630.74 195.523 1630.74 207.831C1630.74 220.139 1627.91 231.24 1622.24 241.135C1616.57 250.909 1608.78 258.571 1598.89 264.122C1589.11 269.552 1578.31 272.267 1566.49 272.267ZM1566.49 254.348C1574.82 254.348 1582.24 252.478 1588.75 248.737C1595.27 244.876 1600.34 239.446 1603.96 232.447C1607.7 225.328 1609.57 217.122 1609.57 207.831C1609.57 198.54 1607.7 190.395 1603.96 183.396C1600.34 176.397 1595.27 171.028 1588.75 167.287C1582.24 163.546 1574.82 161.676 1566.49 161.676C1558.16 161.676 1550.74 163.546 1544.23 167.287C1537.71 171.028 1532.58 176.397 1528.84 183.396C1525.22 190.395 1523.41 198.54 1523.41 207.831C1523.41 217.122 1525.22 225.328 1528.84 232.447C1532.58 239.446 1537.71 244.876 1544.23 248.737C1550.74 252.478 1558.16 254.348 1566.49 254.348ZM1754.4 271H1733.77L1671.68 177.061V271H1651.05V145.024H1671.68L1733.77 238.782V145.024H1754.4V271Z" fill="white"/>
<path d="M85 221C96.0457 221 105 212.046 105 201C105 189.954 96.0457 181 85 181C73.9543 181 65 189.954 65 201C65 212.046 73.9543 221 85 221Z" fill="white"/>
<path d="M449 221C460.046 221 469 212.046 469 201C469 189.954 460.046 181 449 181C437.954 181 429 189.954 429 201C429 212.046 437.954 221 449 221Z" fill="white"/>
<path d="M150 221C161.046 221 170 212.046 170 201C170 189.954 161.046 181 150 181C138.954 181 130 189.954 130 201C130 212.046 138.954 221 150 221Z" fill="white"/>
<path d="M514 221C525.046 221 534 212.046 534 201C534 189.954 525.046 181 514 181C502.954 181 494 189.954 494 201C494 212.046 502.954 221 514 221Z" fill="white"/>
<line x1="579" y1="102" x2="579" y2="305" stroke="#808080" stroke-width="4"/>
</svg>
